Patient4_TMGait_0pt3_03_left_27_EMG.mot
version=1
nRows=33
nColumns=33
inDegrees=no
endheader
time	1LAddLong	2LGlutMax	3LGlutMed	4LIliopsoas	5LSemiMemb	6LBicFemLong	7LRecFem	8LVastMed	9LVastLat	10LGasMed	11LTibAnt	12lTibPost	13LPeroneusLong	14LSol	15LExtDigLong	16LFlexDigLong	17RAddLong	18RGlutMax	19RGlutMed	20RIliopsoas	21RSemiMemb	22RBicFemLong	23RRecFem	24RVastMed	25RVastLat	26RGasMed	27RTibAnt	28RTibPost	29RPeroneusLong	30RSol	31RExtDigLong	32RFlexDigLong
47.54	-0.002441	0.3035	0.029602	-0.019989	0.023956	-0.029449	-0.28976	0.007019	0.091553	0.046692	0.18906	0.031738	-0.020599	-0.044861	0.14435	-0.00412	0.024109	0.025482	-0.009918	0.089569	0.018311	0.13504	-0.017548	-0.39536	-0.47958	0.014038	-0.019226	0.005646	-0.026245	0.063019	0.000763	-0.005341
47.541	0.004425	0.29739	0.006866	-0.000916	0.025482	-0.039825	-0.16739	0.01236	0.077209	0.050049	0.091705	0.039825	-0.009613	-0.010223	-0.099335	0.002441	0.057983	0.071564	-0.015869	0.14984	0.38681	0.056	-0.070648	-0.33737	-0.23621	0.00061	-0.13123	-0.001831	0.96588	0.072174	0.004425	-0.013733
47.542	0.01297	0.29846	0.040436	0.009918	0.028839	0.001831	-0.032806	0.00824	0.063324	0.015106	0.040894	0.03891	0.039063	0.036163	-0.11734	-0.006714	0.067596	0.020447	-0.23834	0.24307	0.39658	-0.056763	0.096893	-0.36667	0.044861	-0.006256	-0.065308	-0.003967	-0.090637	0.069733	0.004425	-0.009003
47.543	0.002747	0.31525	0.048981	0.014496	0.020752	0.019073	0.050201	0.014038	0.056915	0.015259	-0.1619	0.039825	0.082245	0.06134	-0.038452	-0.004883	0.05127	0.039063	-0.002441	0.13809	0.34256	0.006866	0.20508	-0.39139	0.16937	-0.001068	0.067444	-0.005188	-0.4834	0.046844	-0.003357	-0.011902
47.544	0.006561	0.35507	0.009918	0.01236	0.023193	0.014191	0.11002	0.011597	0.049896	0.023651	-0.1033	0.045013	0.059967	0.010071	0.037994	-0.007019	0.037079	0.024872	-0.092316	0.04715	0.013885	0.12054	0.090942	-0.45212	0.22476	-0.001678	0.075989	-0.013275	-0.47836	0.069122	0.001984	-0.00946
47.545	0.009613	0.34683	0.007782	0.006866	0.018005	0.026398	0.05188	0.010986	0.068665	0.062103	-0.112	0.043182	0.004578	-0.045013	-0.00885	-0.003204	-0.013428	0.017548	-0.066528	-0.007782	-0.048676	0.15045	-0.062714	-0.4744	0.22247	-0.006561	0.10803	-0.010223	0.16754	-0.008545	0.005035	-0.010681
47.546	0.009003	0.36941	0.018616	0.006714	0.017395	0.010071	0.018616	0.016022	0.065918	0.055084	-0.13275	0.04837	-0.011597	-0.008545	-0.063324	0.00412	-0.024261	0.014801	0.34576	-0.059509	-0.18173	0.20386	0.017548	-0.40771	0.09552	0.000153	0.14618	-0.005188	0.12711	0.033264	0.000458	-0.014954
47.547	0.003204	0.4126	0.001526	0.029449	0.016174	0.008392	0.076141	0.011749	0.040283	0.036926	0.008545	0.045929	0.021057	0.058136	0.16922	0.006104	0.008392	0.049896	0.11063	-0.083771	-0.061646	0.081787	0.18356	-0.37827	0.25787	-0.005035	0.11154	-0.005646	0.034027	-0.026855	0.002136	-0.019226
47.548	0.001984	0.39078	0.009766	0.011597	0.019836	0.006561	0.10452	0.002441	0.037994	0.029907	0.001831	0.041046	0.006104	0.020599	0.23987	-0.005035	0.028381	-0.055847	0.68909	-0.04715	0.063477	0.091858	0.24063	-0.37781	0.24414	0.003052	-0.056152	0.000458	0.43991	-0.10468	0.002441	-0.014343
47.549	0.007782	0.383	0.025635	0.004425	0.020752	-0.015259	0.035553	0.015106	0.014801	0.043182	-0.003815	0.042725	-0.023499	-0.09552	0.037537	-0.007782	0.000763	-0.035706	0.83878	-0.015259	0.22492	0.093842	-0.046539	-0.068054	-0.036163	0.000153	-0.015717	-0.009918	0.22247	-0.060272	0.006256	-0.01236
47.55	0.007477	0.42786	0.000763	0.002899	0.019531	-0.002136	-0.022125	0.013885	0.002136	0.023499	0.15747	0.042572	-0.007782	-0.096436	0.21088	-0.010986	-0.028381	-0.054779	0.15366	-0.055542	0.21255	0.030518	-0.17777	0.22629	0.095215	0.003052	0.12268	-0.008087	0.71808	-0.03418	0.003967	-0.016785
47.551	0.004883	0.44174	-0.003052	0.022583	0.024719	0.007782	-0.070801	0.007019	-0.00412	0.005646	0.11353	0.04303	0.00061	-0.05249	0.27802	0.005493	-0.036163	-0.039215	0.59586	-0.10391	0.10086	0.030823	-0.39825	0.51941	0.075378	-0.000153	0.25986	-0.009155	0.76675	-0.045319	0.001221	-0.021362
47.552	-0.000153	0.47134	0.003357	0.016327	0.019226	0.020905	-0.079651	0.020294	-0.014648	0.000305	0.11841	0.0383	-0.015717	0.014038	-0.12497	-0.02121	-0.013885	0.049133	-0.019379	-0.09903	0.06897	0.026703	-0.35172	0.79712	-0.071106	-0.002441	0.18784	-0.005188	-0.24185	-0.14816	0.003662	-0.015869
47.553	0.003204	0.48966	0.004425	0.000916	0.027161	-0.006256	-0.059204	0.009918	-0.017395	0.014648	0.23621	0.042572	0.003967	-0.024414	-0.33966	-0.004578	-0.043335	0.06485	0.022736	-0.031738	0.067291	-0.004578	-0.29358	0.89371	-0.14648	0.006104	-0.19684	-0.009003	0.23025	-0.2475	0.002594	-0.011139
47.554	0.009155	0.49942	0.003967	0.001831	0.022278	-0.011139	-0.016174	0.013428	-0.002899	-0.004883	0.17746	0.046082	0.05188	-0.065765	-0.3862	-0.010071	-0.031891	0.059357	0.1532	-0.037689	0.044708	-0.028534	-0.21362	0.52841	-0.28046	-0.002747	-0.10773	-0.003052	1.4896	-0.078583	-0.000305	-0.02121
47.555	0.007782	0.50522	0.004578	0.025787	0.023346	-0.017395	-0.054321	0.015106	-0.008392	0.027618	-0.009155	0.036621	0.078125	-0.10391	-0.30975	-0.004425	-0.02594	-0.037689	-0.049896	-0.026703	0.020142	-0.047455	-0.10223	-0.11307	-0.068207	-0.006561	0.11353	-0.003662	-0.61295	-0.026398	0.004272	-0.011902
47.556	0.007019	0.51148	0.023193	0.035858	0.017395	-0.003204	-0.088043	0.009308	-0.007782	0.039825	-0.05661	0.027466	0.049744	0.000763	-0.072327	-0.007629	-0.01236	-0.041809	-0.15549	0.005341	0.02182	-0.043793	-0.064087	-0.28168	0.028687	-0.002441	0.10315	-0.010223	-1.7111	-0.074158	-0.003815	-0.00351
47.557	0.007324	0.53772	0.03006	0.006561	0.025787	-0.002441	-0.086212	0.012817	-0.000458	0.014648	-0.12116	0.027924	0.071869	0.018005	-0.070038	-0.018158	-0.007019	-0.075378	0.44434	0.026398	0.04425	-0.024719	-0.094147	-0.34439	0.0354	-0.000458	-0.10956	-0.01358	-1.5297	-0.13412	0.004272	-0.007324
47.558	0.00351	0.44815	0.0177	-0.01236	0.028229	-0.011902	-0.093231	0.015564	0.002594	0.033112	-0.11826	0.02655	0.050659	-0.037231	-0.1593	-0.023651	0.0177	-0.10132	-0.17166	0.12131	0.089722	-0.08606	-0.093079	-0.31982	0.011139	-0.007019	-0.12589	-0.010529	-0.39505	-0.084076	0.006256	-0.00061
47.559	0.001373	0.40176	-0.025635	-0.012054	0.031433	-0.027161	-0.042419	0.00885	0.003204	0.019073	-0.003967	0.029755	-0.006561	-0.002289	0.46738	-0.020142	0.065155	-0.09613	0.25482	0.14938	0.041046	-0.01297	-0.052643	-0.19424	-0.014954	-0.001373	-0.093536	-0.012207	-0.14038	-0.006256	0.003662	-0.001068
47.56	0.002441	0.38925	-0.036774	-0.006866	0.031586	-0.007477	-0.038605	0.00412	-0.008545	0.0383	0.067749	0.023346	-0.002441	-0.057831	1.0934	-0.019073	0.10803	-0.037537	0.22263	0.053864	-0.01358	-0.029602	-0.003662	0.021057	-0.03479	-0.018311	0.045624	-0.011902	0.31021	0.19913	0.00473	-0.003662
47.561	0.007782	0.35797	-0.035248	-0.015106	0.036316	-0.022278	0.003815	0.005188	-0.007629	0.010223	0.050201	0.016022	0.029755	-0.059204	0.11719	-0.001831	0.1268	-0.036926	-0.38269	-0.00885	-0.27313	0.04715	0.082245	0.27283	-0.019989	-0.013428	0.14923	-0.009766	0.91644	0.1033	0.002899	-0.006561
47.562	0.009155	0.31296	-0.00061	0.002594	0.027466	0.002747	0.023499	0.002899	-0.011597	0.018921	0.03891	0.012054	0.060883	-0.022583	-0.085754	-0.015259	0.046692	-0.11948	-0.57816	-0.12573	-0.30411	0.087585	0.074768	0.40817	0.023651	-0.006409	0.16876	-0.018921	0.53574	0.043182	0.005035	-0.00885
47.563	0.010376	0.28549	-0.018768	0.00885	0.026703	0.00351	0.03067	0.001984	-0.019989	0.018311	-0.089874	0.013885	0.038452	-0.003967	0.065613	-0.021057	-0.009155	-0.021057	0.11368	-0.20767	0.025177	-0.042114	-0.082245	0.50903	0.10574	-0.000916	0.075531	-0.01358	0.233	0.028381	0.006256	-0.020142
47.564	0.008698	0.26932	-0.010834	0.018616	0.029297	0.018158	0.031586	0.006409	-0.017395	-0.004578	-0.15884	0.015717	0.072327	0.024261	-0.48202	-0.010223	-0.025177	-0.097809	0.40955	-0.17532	-0.002136	-0.047913	0.024719	0.58929	0.1355	0.012207	0.13428	-0.010376	0.021057	-0.024719	0.006409	-0.012512
47.565	0.010376	0.2681	-0.017548	0.012665	0.02655	0.007324	-0.013275	-0.001068	-0.005188	-0.008698	-0.017395	0.010529	0.063934	0.022583	0.56366	-0.015259	-0.080566	-0.076904	0.63385	-0.022583	0.042877	-0.012054	-0.002594	0.45639	0.15549	0.01297	0.14786	-0.016022	0.90805	-0.092163	0.00351	-0.00824
47.566	0.00824	0.22293	0.004272	0.002594	0.026855	0.006409	-0.039215	-0.001068	-0.025635	-0.007935	0.066071	0.01709	0.033722	-0.00824	-0.60196	-0.000763	-0.12207	-0.088959	0.28976	0.26871	0.078125	0.036621	0.070801	0.29862	0.10788	0.005341	0.13123	-0.009766	-0.18448	-0.087891	0.005188	-0.011139
47.567	0.001678	0.16739	-0.003662	-0.005341	0.02655	0.001831	-0.039825	-0.000916	-0.032196	-0.005188	-0.006561	0.012054	0.02655	0.02121	-0.35172	-0.019684	-0.083923	-0.075378	0.36087	0.3447	0.057831	0.056915	0.17425	0.55374	-0.020752	-0.001221	0.049591	-0.012054	-0.50384	-0.043182	0.007019	-0.013428
47.568	0.005493	0.17456	-0.003815	0.014496	0.025787	-0.000305	-0.040436	-0.005188	-0.032043	0.013733	-0.053253	0.009155	0.034637	0.028229	-0.25726	-0.034637	-0.059052	-0.18814	0.48141	0.12573	0.082245	0.080261	-0.085297	0.45883	-0.095215	-0.014648	0.058441	-0.017548	-0.94162	0.045166	0.002289	-0.017395
47.569	0.00351	0.14374	-0.005188	0.039825	0.032043	0.007629	0.003815	-0.006104	-0.032959	0.010376	-0.055847	0.007477	0.058899	-0.042114	-0.24139	-0.019073	-0.042725	-0.083466	0.098114	-0.029297	0.14572	0.00412	-0.10101	0.26382	-0.077362	-0.025024	0.0383	-0.005035	-0.94299	0.033875	0.003357	-0.015869
47.57	0.007782	0.13473	-0.06485	0.023956	0.02594	0.005951	0.067444	-0.00061	-0.033417	0.008698	-0.081482	0.005035	0.041351	-0.12405	-0.17868	-0.024872	-0.017395	-0.037079	-0.47241	-0.12497	0.036469	-0.046387	-0.11231	0.39902	-0.046082	-0.009613	0.003967	-0.014954	-0.49683	0.091553	0.002594	-0.01297
47.571	-0.003662	0.12222	-0.11643	0.001221	0.031586	0.000763	0.060883	-0.038757	-0.024719	0.028381	-0.018158	0.006104	0.019836	-0.055542	0.014954	-0.021057	-0.020294	-0.066986	-0.55527	-0.29129	-0.074615	-0.052185	-0.1506	0.7373	-0.025482	-0.000763	-0.027313	-0.015106	0.090637	-0.044403	0.002441	-0.004272
47.572	0.006104	0.11047	-0.068359	-0.020294	0.022125	-0.005951	0.053864	0.005646	-0.028534	0.011292	0.014954	0.002747	-0.002289	-0.050354	0.087128	-0.007019	0.007019	-0.072479	-0.39337	-0.29098	-0.066833	0.001068	0.006256	0.72952	-0.014648	0.003204	-0.011292	-0.011444	-0.10529	-0.057373	-0.000763	-0.004578
